# xmcd
#
# Track frame offsets: 
#        150
#        20815
#        43305
#        66262
#        106913
#        131215
#        157704
#        182723
#        204726
#
# Disc length: 3149 seconds
#
# Revision: 0
# Processed by: cddbd v1.5.2PL0 Copyright (c) Steve Scherf et al.
# Submitted via: ExactAudioCopy v1.1
#
DISCID=810c4b09
DTITLE=Mick Clarke - Ruff'n'Roar
DYEAR=2016
DGENRE=Electric Blues
TTITLE0=Happy Home
TTITLE1=Good Morning Blues
TTITLE2=Rockin' The Blues
TTITLE3=Love Me Or Leave Me
TTITLE4=Walkin' Blues
TTITLE5=Little Rachel
TTITLE6=Cheap
TTITLE7=Give Me Back My Wig
TTITLE8=You Need Love
EXTD=
EXTT0=
EXTT1=
EXTT2=
EXTT3=
EXTT4=
EXTT5=
EXTT6=
EXTT7=
EXTT8=
PLAYORDER=
